<svg preserveAspectRatio="none" width="100%" height="100%" overflow="visible" style="display: block;" viewBox="0 0 17.4484 14.9578" fill="none" xmlns="http://www.w3.org/2000/svg">
<g id="f">
<path id="Vector" d="M4.18158 11.6064H0V12.3766H4.18158V11.6064Z" fill="var(--fill-0, #F5FAFE)"/>
<path id="Vector_2" d="M4.18158 13.0196H0V13.7898H4.18158V13.0196Z" fill="var(--fill-0, #F5FAFE)"/>
<path id="Vector_3" d="M0 14.1875V14.6157C0 14.8083 0.144006 14.9578 0.36043 14.9578H3.79701C4.01343 14.9578 4.18158 14.8083 4.18158 14.6157V14.1875H0Z" fill="var(--fill-0, #F5FAFE)"/>
<path id="Vector_4" d="M4.18158 10.5656V0.342045C4.18158 0.149898 4.01343 0 3.79701 0H0.36043C0.144006 0 0 0.149492 0 0.342045V10.5656H4.18158Z" fill="var(--fill-0, #F5FAFE)"/>
<path id="Vector_5" d="M14.3336 13.7919C14.6849 13.5645 15.0091 13.3077 15.303 13.0229H5.13477V13.7919H14.3332H14.3336Z" fill="var(--fill-0, #F5FAFE)"/>
<path id="Vector_6" d="M5.13477 11.6118V12.3808H15.879C16.07 12.1379 16.2453 11.8816 16.4022 11.6118H5.13477Z" fill="var(--fill-0, #F5FAFE)"/>
<path id="Vector_7" d="M5.13477 14.189V14.5915C5.13477 14.7837 5.25755 14.9328 5.44151 14.9328H10.1454C11.4806 14.9328 12.646 14.6659 13.6303 14.189H5.13477Z" fill="var(--fill-0, #F5FAFE)"/>
<path id="Vector_8" d="M9.33661 10.5729V4.38565H10.2535C11.858 4.38565 12.7341 5.44712 12.7341 7.49127C12.7341 9.36723 11.9941 10.4129 10.6327 10.5729H16.8986C17.2607 9.62925 17.4484 8.57874 17.4484 7.46608C17.4488 3.3063 14.8513 0 10.1474 0H5.44346C5.2595 0 5.13672 0.149492 5.13672 0.341232V10.5729H9.33661Z" fill="var(--fill-0, #F5FAFE)"/>
</g>
</svg>
