<svg xmlns="http://www.w3.org/2000/svg" id="b" width="1126.645" height="234.427" viewBox="0 0 1126.645 234.427"><g id="c"><g id="d"><g id="e"><rect x="265.513" y="118.897" width="27.5" height="5.181" fill="#16161c" stroke-width="0"></rect><rect x="265.513" y="128.405" width="27.5" height="5.181" fill="#16161c" stroke-width="0"></rect><path d="M265.513,136.26v2.881c0,1.294.948,2.3,2.37,2.3h22.601c1.423,0,2.529-1.006,2.529-2.3v-2.881h-27.5Z" fill="#16161c" stroke-width="0"></path><path d="M293.013,111.897V43.13c0-1.293-1.106-2.299-2.529-2.299h-22.601c-1.422,0-2.37,1.006-2.37,2.299v68.768h27.5Z" fill="#16161c" stroke-width="0"></path><path d="M359.778,133.585c2.311-1.533,4.442-3.262,6.375-5.181h-66.867v5.181h60.492Z" fill="#16161c" stroke-width="0"></path><path d="M299.286,118.897v5.181h70.657c1.257-1.637,2.407-3.364,3.439-5.181h-74.096Z" fill="#16161c" stroke-width="0"></path><path d="M299.286,136.26v2.711c0,1.294.807,2.3,2.017,2.3h30.935c8.781,0,16.443-1.799,22.917-5.011h-55.87Z" fill="#16161c" stroke-width="0"></path><path d="M326.907,111.897v-41.687h6.029c10.551,0,16.314,7.153,16.314,20.925,0,12.638-4.866,19.685-13.818,20.762h41.206c2.382-6.358,3.616-13.436,3.616-20.932,0-28.027-17.081-50.305-48.016-50.305h-30.935c-1.21,0-2.017,1.006-2.017,2.299v68.938h27.621Z" fill="#16161c" stroke-width="0"></path></g><g id="f"><g id="g"><path d="M383.261,129.251c-.702-.853-.562-2.701.562-4.265l6.179-8.813c1.264-1.99,2.528-1.563,3.651-.853,6.319,4.264,10.953,6.254,15.306,6.254,3.09,0,5.056-.853,5.056-3.412,0-1.99-1.264-2.985-5.477-4.833l-8.987-3.554c-9.128-3.554-14.885-9.951-14.885-19.475,0-14.073,11.936-22.034,25.417-22.034,9.409,0,18.115,3.838,24.294,11.23.842.995.562,2.132-.141,2.843l-8.004,9.666c-.842.995-1.966.853-3.229,0-4.494-3.412-8.145-5.26-11.655-5.26-3.792,0-4.354,2.132-4.354,3.554,0,1.848,1.966,3.412,4.354,4.264l10.953,4.407c8.566,3.412,15.307,9.809,15.166,20.328-.281,14.642-12.638,22.033-26.962,22.033-11.655,0-21.064-4.691-27.243-12.083Z" fill="#16161c" stroke-width="0"></path><path d="M410.503,141.583c-11.13,0-20.873-4.323-27.435-12.172h0c-.818-.995-.576-3.002.551-4.571l6.177-8.811c1.383-2.177,2.86-1.635,3.99-.92,6.458,4.358,10.994,6.216,15.172,6.216,3.324,0,4.806-.975,4.806-3.162,0-1.801-1.095-2.748-5.327-4.604l-8.979-3.55c-9.841-3.831-15.043-10.646-15.043-19.707,0-15.311,13.305-22.284,25.667-22.284,9.688,0,18.384,4.02,24.486,11.32.951,1.124.608,2.407-.155,3.179l-7.99,9.65c-.878,1.036-2.075,1.05-3.562.047-4.756-3.61-8.305-5.217-11.516-5.217-2.723,0-4.104,1.112-4.104,3.304,0,1.868,2.163,3.306,4.188,4.029l10.962,4.41c7.078,2.819,15.481,8.675,15.323,20.563-.133,6.957-3.009,12.733-8.315,16.704-4.805,3.596-11.516,5.576-18.897,5.576ZM383.454,129.092c6.465,7.733,16.071,11.992,27.05,11.992,12.13,0,26.404-5.706,26.712-21.788.155-11.603-8.076-17.33-15.008-20.09l-10.954-4.407c-2.176-.776-4.51-2.368-4.51-4.496,0-1.735.799-3.804,4.604-3.804,3.373,0,6.903,1.588,11.807,5.311,1.247.842,2.195.857,2.887.038l8.003-9.664c.573-.582.942-1.577.142-2.522-6.006-7.185-14.565-11.142-24.103-11.142-12.121,0-25.167,6.817-25.167,21.784,0,8.837,5.092,15.491,14.726,19.242l8.988,3.554c4.161,1.825,5.635,2.864,5.635,5.065,0,2.464-1.735,3.662-5.306,3.662-4.286,0-8.905-1.883-15.446-6.297-1.199-.758-2.221-.918-3.301.78l-6.185,8.823c-1.104,1.537-1.157,3.253-.573,3.962Z" fill="#16161c" stroke-width="0"></path><path d="M439.291,104.375c0-20.47,15.166-36.106,35.949-36.106,11.655,0,21.064,5.118,26.962,12.936.843.995.562,2.274-.281,3.127l-10.813,10.52c-.983.995-2.809,1.137-3.792,0-3.511-3.27-6.881-4.691-10.953-4.691-9.268,0-14.464,6.539-14.464,14.215s5.196,15.068,14.885,15.068c3.792,0,7.162-1.421,10.672-4.833.983-.995,2.809-.853,3.792.142l10.812,10.519c.843.853,1.124,2.132.281,3.127-5.898,7.818-15.307,12.936-26.4,12.936-21.205,0-36.651-16.063-36.651-36.959Z" fill="#16161c" stroke-width="0"></path><path d="M475.942,141.583c-21.037,0-36.901-15.997-36.901-37.209,0-20.727,15.562-36.356,36.199-36.356,11.174,0,20.82,4.629,27.162,13.036.842.993.721,2.417-.303,3.453l-10.816,10.523c-.564.571-1.41.897-2.24.87-.764-.026-1.444-.34-1.915-.885-3.415-3.178-6.741-4.604-10.764-4.604-8.369,0-14.214,5.743-14.214,13.965,0,7.364,5.027,14.818,14.635,14.818,3.819,0,7.155-1.513,10.498-4.762.477-.482,1.16-.75,1.92-.75.838,0,1.669.335,2.223.896l10.809,10.516c1.027,1.039,1.148,2.464.298,3.468-6.241,8.273-15.936,13.024-26.591,13.024ZM475.24,68.518c-20.352,0-35.699,15.415-35.699,35.856,0,20.928,15.649,36.709,36.401,36.709,10.497,0,20.047-4.679,26.201-12.836.802-.948.446-2.088-.259-2.801l-10.809-10.516c-.465-.471-1.164-.75-1.871-.75-.626,0-1.183.215-1.568.605-3.446,3.349-6.893,4.907-10.85,4.907-9.937,0-15.135-7.706-15.135-15.318,0-8.517,6.051-14.465,14.714-14.465,4.16,0,7.59,1.467,11.124,4.758.398.458.95.711,1.572.732.686.021,1.399-.247,1.871-.725l10.816-10.523c.702-.71,1.058-1.85.264-2.786-6.253-8.289-15.758-12.848-26.771-12.848Z" fill="#16161c" stroke-width="0"></path><path d="M501.922,104.801c0-20.47,13.06-36.533,32.017-36.533,9.689,0,16.587,3.67,20.94,9.783l-.016-5.802c0-1.279.983-2.274,2.247-2.274h17.413c1.264,0,2.247.995,2.247,2.274v65.105c0,1.279-1.123,2.274-2.388,2.274h-17.272c-1.264,0-2.247-.995-2.247-2.274l-.027-5.95c-4.634,6.112-11.488,9.93-20.897,9.93-18.958,0-32.017-15.921-32.017-36.533ZM539.275,119.727c8.285,0,14.042-5.971,14.042-15.068,0-8.956-5.757-14.784-14.042-14.784-8.145,0-14.324,5.97-14.324,14.926,0,9.098,6.179,14.926,14.324,14.926Z" fill="#16161c" stroke-width="0"></path><path d="M533.939,141.583c-18.697,0-32.267-15.469-32.267-36.783s13.57-36.783,32.267-36.783c9.058,0,16.013,3.118,20.688,9.268l-.014-5.037c0-1.416,1.097-2.525,2.496-2.525h17.413c1.4,0,2.497,1.109,2.497,2.524v65.105c0,1.392-1.184,2.524-2.638,2.524h-17.272c-1.399,0-2.496-1.109-2.496-2.524l-.024-5.226c-5.014,6.275-11.957,9.456-20.65,9.456ZM533.939,68.518c-18.407,0-31.767,15.259-31.767,36.283s13.36,36.283,31.767,36.283c8.789,0,15.752-3.308,20.698-9.831l.446-.588.03,6.688c0,1.136.877,2.025,1.996,2.025h17.272c1.159,0,2.138-.927,2.138-2.024v-65.105c0-1.135-.877-2.024-1.997-2.024h-17.413c-1.119,0-1.996.889-1.996,2.024l.018,6.587-.456-.64c-4.573-6.422-11.55-9.678-20.736-9.678ZM539.275,119.977c-8.581,0-14.574-6.241-14.574-15.176,0-8.793,6.129-15.176,14.574-15.176,8.549,0,14.293,6.042,14.293,15.034,0,9.163-5.744,15.318-14.293,15.318ZM539.275,90.125c-8.287,0-14.074,6.035-14.074,14.676s5.787,14.676,14.074,14.676,13.793-5.955,13.793-14.818c0-8.693-5.543-14.534-13.793-14.534Z" fill="#16161c" stroke-width="0"></path><path d="M585.756,137.354v-65.105c0-1.279.983-2.274,2.247-2.274h18.536c1.124,0,2.106.568,2.106,2.417l.034,7.845c3.933-7.108,10.639-11.968,20.328-11.968,14.183,0,24.855,10.804,24.855,28.857v40.229c0,1.279-1.123,2.274-2.388,2.274h-18.957c-1.264,0-2.247-.995-2.247-2.274v-34.258c0-8.671-3.511-12.936-10.392-12.936-6.74,0-10.532,4.264-10.532,12.936v34.258c0,1.279-.982,2.274-2.246,2.274h-19.099c-1.264,0-2.247-.995-2.247-2.274Z" fill="#16161c" stroke-width="0"></path><path d="M651.476,139.878h-18.957c-1.4,0-2.497-1.109-2.497-2.524v-34.258c0-8.536-3.317-12.686-10.142-12.686-6.727,0-10.282,4.387-10.282,12.686v34.258c0,1.416-1.097,2.524-2.496,2.524h-19.099c-1.4,0-2.497-1.109-2.497-2.524v-65.105c0-1.416,1.097-2.524,2.497-2.524h18.536c.88,0,2.356.346,2.356,2.667l.03,6.917c3.187-5.332,9.186-11.289,20.082-11.289,15.017,0,25.105,11.697,25.105,29.107v40.229c0,1.392-1.184,2.524-2.638,2.524ZM619.88,89.909c7.062,0,10.642,4.436,10.642,13.186v34.258c0,1.135.877,2.024,1.997,2.024h18.957c1.159,0,2.138-.927,2.138-2.024v-40.229c0-17.111-9.888-28.607-24.605-28.607-11.207,0-17.121,6.438-20.109,11.839l-.465.84-.038-8.806c0-1.438-.625-2.167-1.856-2.167h-18.536c-1.12,0-1.997.889-1.997,2.024v65.105c0,1.135.877,2.024,1.997,2.024h19.099c1.119,0,1.996-.889,1.996-2.024v-34.258c0-8.626,3.729-13.186,10.782-13.186Z" fill="#16161c" stroke-width="0"></path><path d="M736.151,104.517c0-20.47,14.183-36.249,35.668-36.249,21.063,0,33.281,15.495,33.281,33.406,0,7.534-1.826,12.225-8.707,12.225h-37.213c2.528,6.397,8.566,8.813,17.132,8.813,3.933,0,8.426-.142,14.184-3.27,1.123-.568,1.825-.284,2.527.853l6.46,9.098c.562.853.702,1.99-.702,3.27-5.758,5.97-14.604,8.671-24.435,8.671-22.608,0-38.195-15.352-38.195-36.817ZM784.177,97.551c-1.404-7.392-6.46-9.809-12.217-9.809-6.039,0-11.375,2.701-13.2,9.809h25.417Z" fill="#16161c" stroke-width="0"></path><path d="M774.347,141.583c-22.636,0-38.445-15.243-38.445-37.067,0-10.123,3.497-19.347,9.847-25.973,6.598-6.886,15.612-10.525,26.071-10.525,10.047,0,18.596,3.481,24.723,10.066,5.681,6.105,8.809,14.483,8.809,23.59,0,6.168-1.064,12.475-8.957,12.475h-36.841c2.405,5.669,7.744,8.313,16.76,8.313,4.269,0,8.557-.248,14.064-3.239,1.215-.616,2.071-.335,2.859.941l6.451,9.084c.552.838.867,2.136-.738,3.599-5.507,5.711-14.019,8.736-24.603,8.736ZM771.819,68.518c-20.522,0-35.418,15.14-35.418,35.999,0,21.53,15.604,36.567,37.945,36.567,10.445,0,18.832-2.972,24.255-8.594,1.091-.995,1.313-1.986.673-2.958l-6.455-9.091c-.66-1.068-1.236-1.269-2.21-.774-5.604,3.044-9.961,3.296-14.297,3.296-9.299,0-14.979-2.935-17.364-8.972l-.135-.342h37.58c6.007,0,8.457-3.469,8.457-11.975,0-15.969-10.337-33.156-33.031-33.156ZM784.479,97.801h-26.041l.08-.312c1.655-6.446,6.43-9.997,13.442-9.997,6.908,0,11.218,3.462,12.463,10.012l.056.297ZM759.085,97.301h24.787c-1.278-6.177-5.285-9.309-11.912-9.309s-11.209,3.302-12.875,9.309Z" fill="#16161c" stroke-width="0"></path><path d="M810.576,137.354v-65.105c0-1.279.983-2.274,2.247-2.274h18.536c1.124,0,1.967.568,2.106,2.417l.068,9.432c2.247-7.818,7.094-13.554,14.958-13.554,3.511,0,5.336.995,6.318,1.848,1.124.853,1.404,1.848,1.404,3.127v15.778c0,1.706-.982,2.274-2.948,1.848-1.404-.426-2.809-.71-5.196-.71-8.285,0-13.902,4.406-13.902,15.21v31.984c0,1.279-.982,2.274-2.246,2.274h-19.099c-1.264,0-2.247-.995-2.247-2.274Z" fill="#16161c" stroke-width="0"></path><path d="M831.922,139.878h-19.099c-1.4,0-2.497-1.109-2.497-2.524v-65.105c0-1.416,1.097-2.524,2.497-2.524h18.536c1.431,0,2.223.891,2.355,2.647l.058,7.86c2.709-7.892,7.892-12.213,14.72-12.213,2.842,0,5.023.643,6.482,1.909,1.309.992,1.49,2.181,1.49,3.316v15.778c0,.838-.231,1.45-.688,1.818-.545.44-1.386.53-2.562.274-1.403-.425-2.805-.705-5.144-.705-8.932,0-13.652,5.173-13.652,14.96v31.984c0,1.416-1.097,2.524-2.496,2.524ZM812.823,70.224c-1.12,0-1.997.889-1.997,2.024v65.105c0,1.135.877,2.024,1.997,2.024h19.099c1.119,0,1.996-.889,1.996-2.024v-31.984c0-12.778,7.696-15.46,14.152-15.46,2.401,0,3.843.288,5.269.721.991.215,1.709.154,2.124-.18.338-.272.502-.74.502-1.429v-15.778c0-1.163-.222-2.106-1.306-2.928-1.378-1.196-3.449-1.797-6.167-1.797-7.013,0-12.239,4.75-14.718,13.373l-.478,1.663-.081-11.161c-.146-1.92-1.068-2.168-1.856-2.168h-18.536Z" fill="#16161c" stroke-width="0"></path><path d="M848.07,127.83c0-7.676,6.039-13.931,13.622-13.931,7.442,0,13.48,6.255,13.48,13.931,0,7.534-6.038,13.646-13.48,13.646-7.583,0-13.622-6.113-13.622-13.646Z" fill="#16161c" stroke-width="0"></path><path d="M861.692,141.726c-7.649,0-13.872-6.234-13.872-13.896,0-7.819,6.223-14.181,13.872-14.181,7.571,0,13.73,6.362,13.73,14.181,0,7.663-6.159,13.896-13.73,13.896ZM861.692,114.148c-7.373,0-13.372,6.137-13.372,13.681,0,7.387,5.999,13.396,13.372,13.396,7.295,0,13.23-6.01,13.23-13.396,0-7.544-5.936-13.681-13.23-13.681Z" fill="#16161c" stroke-width="0"></path><path d="M878.543,104.375c0-20.47,15.166-36.106,35.949-36.106,11.655,0,21.063,5.118,26.962,12.936.842.995.562,2.274-.281,3.127l-10.812,10.52c-.983.995-2.809,1.137-3.792,0-3.511-3.27-6.881-4.691-10.953-4.691-9.269,0-14.464,6.539-14.464,14.215s5.195,15.068,14.885,15.068c3.792,0,7.162-1.421,10.673-4.833.982-.995,2.809-.853,3.791.142l10.813,10.519c.843.853,1.123,2.132.28,3.127-5.897,7.818-15.307,12.936-26.4,12.936-21.204,0-36.65-16.063-36.65-36.959Z" fill="#16161c" stroke-width="0"></path><path d="M915.193,141.583c-21.037,0-36.9-15.997-36.9-37.209,0-20.727,15.562-36.356,36.199-36.356,11.174,0,20.819,4.629,27.161,13.036.842.993.721,2.418-.303,3.453l-10.815,10.523c-.566.571-1.437.889-2.24.87-.764-.026-1.444-.34-1.916-.885-3.415-3.178-6.74-4.604-10.764-4.604-8.369,0-14.214,5.743-14.214,13.965,0,7.364,5.027,14.818,14.635,14.818,3.819,0,7.155-1.513,10.499-4.762.476-.482,1.159-.75,1.92-.75.838,0,1.669.335,2.223.896l10.811,10.516c1.026,1.039,1.146,2.464.296,3.468-6.239,8.273-15.935,13.024-26.591,13.024ZM914.492,68.518c-20.352,0-35.699,15.415-35.699,35.856,0,20.928,15.648,36.709,36.4,36.709,10.498,0,20.048-4.679,26.201-12.836.802-.948.446-2.088-.259-2.801l-10.81-10.516c-.466-.471-1.164-.75-1.871-.75-.626,0-1.184.215-1.568.605-3.446,3.349-6.893,4.907-10.851,4.907-9.937,0-15.135-7.706-15.135-15.318,0-8.517,6.051-14.465,14.714-14.465,4.159,0,7.59,1.467,11.123,4.758.398.458.95.711,1.573.732.695.017,1.399-.248,1.871-.725l10.815-10.523c.702-.71,1.059-1.849.266-2.786-6.254-8.289-15.759-12.848-26.771-12.848Z" fill="#16161c" stroke-width="0"></path><path d="M941.174,104.801c0-20.47,15.306-36.533,36.37-36.533,20.924,0,36.229,16.063,36.229,36.533s-15.306,36.533-36.229,36.533c-21.064,0-36.37-16.063-36.37-36.533ZM977.544,119.442c7.442,0,13.621-5.402,13.621-14.642s-6.179-14.641-13.621-14.641c-7.583,0-13.762,5.401-13.762,14.641s6.179,14.642,13.762,14.642Z" fill="#16161c" stroke-width="0"></path><path d="M977.544,141.583c-20.877,0-36.62-15.813-36.62-36.783s15.743-36.783,36.62-36.783,36.479,15.813,36.479,36.783-15.683,36.783-36.479,36.783ZM977.544,68.518c-20.592,0-36.12,15.598-36.12,36.283s15.528,36.283,36.12,36.283,35.979-15.598,35.979-36.283-15.468-36.283-35.979-36.283ZM977.544,119.692c-8.25,0-14.012-6.124-14.012-14.892s5.762-14.891,14.012-14.891c8.167,0,13.871,6.124,13.871,14.891s-5.704,14.892-13.871,14.892ZM977.544,90.409c-7.955,0-13.512,5.918-13.512,14.391s5.557,14.392,13.512,14.392c7.873,0,13.371-5.918,13.371-14.392s-5.498-14.391-13.371-14.391Z" fill="#16161c" stroke-width="0"></path><path d="M1019.249,137.354v-65.105c0-1.279.983-2.274,2.247-2.274h18.536c1.124,0,2.106.568,2.106,2.417l.063,7.004c3.932-6.539,10.751-11.126,19.738-11.126,8.426,0,15.166,4.123,19.098,11.656,4.072-6.823,10.953-11.656,21.064-11.656,15.025,0,24.293,10.662,24.293,28.857v40.229c0,1.279-.982,2.274-2.246,2.274h-19.099c-1.264,0-2.246-.995-2.246-2.274v-34.542c0-8.387-2.809-12.651-9.128-12.651-6.038,0-9.128,4.264-9.128,12.651v34.542c0,1.279-.983,2.274-2.247,2.274h-18.817c-1.544,0-2.527-.995-2.527-2.274v-34.542c0-8.387-2.668-12.651-8.987-12.651-5.897,0-9.128,4.264-9.128,12.651v34.542c0,1.279-.982,2.274-2.246,2.274h-19.099c-1.264,0-2.247-.995-2.247-2.274Z" fill="#16161c" stroke-width="0"></path><path d="M1124.148,139.878h-19.099c-1.399,0-2.496-1.109-2.496-2.524v-34.542c0-8.461-2.821-12.401-8.878-12.401-5.891,0-8.878,4.172-8.878,12.401v34.542c0,1.416-1.097,2.524-2.497,2.524h-18.817c-1.609,0-2.777-1.062-2.777-2.524v-34.542c0-8.461-2.776-12.401-8.737-12.401-5.808,0-8.878,4.288-8.878,12.401v34.542c0,1.416-1.097,2.524-2.496,2.524h-19.099c-1.4,0-2.497-1.109-2.497-2.524v-65.105c0-1.416,1.097-2.524,2.497-2.524h18.536c.88,0,2.356.346,2.356,2.667l.055,6.145c4.346-6.696,11.404-10.517,19.496-10.517,8.344,0,15.115,4.045,19.112,11.401,3.273-5.291,9.546-11.401,21.05-11.401,15.368,0,24.543,10.881,24.543,29.107v40.229c0,1.416-1.097,2.524-2.496,2.524ZM1093.676,89.909c6.311,0,9.378,4.22,9.378,12.901v34.542c0,1.135.877,2.024,1.996,2.024h19.099c1.119,0,1.996-.889,1.996-2.024v-40.229c0-17.913-8.988-28.607-24.043-28.607-11.543,0-17.709,6.272-20.85,11.534l-.229.384-.207-.396c-3.878-7.43-10.581-11.522-18.876-11.522-8.202,0-15.318,4.011-19.524,11.005l-.456.759-.07-7.889c0-1.44-.625-2.169-1.856-2.169h-18.536c-1.12,0-1.997.889-1.997,2.024v65.105c0,1.135.877,2.024,1.997,2.024h19.099c1.119,0,1.996-.889,1.996-2.024v-34.542c0-8.44,3.243-12.901,9.378-12.901,6.302,0,9.237,4.1,9.237,12.901v34.542c0,1.192.937,2.024,2.277,2.024h18.817c1.12,0,1.997-.889,1.997-2.024v-34.542c0-8.561,3.155-12.901,9.378-12.901Z" fill="#16161c" stroke-width="0"></path></g><path d="M662.709,138.354v-65.105c0-1.279.983-2.274,2.247-2.274h18.536c1.124,0,2.106.568,2.106,2.417l.034,7.845c3.933-7.108,10.639-11.968,20.328-11.968,14.183,0,24.855,10.804,24.855,28.857v40.229c0,1.279-1.123,2.274-2.388,2.274h-18.957c-1.264,0-2.247-.995-2.247-2.274v-34.258c0-8.671-3.511-12.936-10.392-12.936-6.74,0-10.532,4.264-10.532,12.936v34.258c0,1.279-.982,2.274-2.246,2.274h-19.099c-1.264,0-2.247-.995-2.247-2.274Z" fill="#16161c" stroke-width="0"></path><path d="M728.429,140.878h-18.957c-1.4,0-2.497-1.109-2.497-2.524v-34.258c0-8.536-3.317-12.686-10.142-12.686-6.727,0-10.282,4.387-10.282,12.686v34.258c0,1.416-1.097,2.524-2.496,2.524h-19.099c-1.4,0-2.497-1.109-2.497-2.524v-65.105c0-1.416,1.097-2.524,2.497-2.524h18.536c.88,0,2.356.346,2.356,2.667l.03,6.917c3.187-5.332,9.186-11.289,20.082-11.289,15.017,0,25.105,11.697,25.105,29.107v40.229c0,1.392-1.184,2.524-2.638,2.524ZM696.833,90.909c7.062,0,10.642,4.436,10.642,13.186v34.258c0,1.135.877,2.024,1.997,2.024h18.957c1.159,0,2.138-.927,2.138-2.024v-40.229c0-17.111-9.888-28.607-24.605-28.607-11.207,0-17.121,6.438-20.109,11.839l-.465.84-.038-8.806c0-1.438-.625-2.167-1.856-2.167h-18.536c-1.12,0-1.997.889-1.997,2.024v65.105c0,1.135.877,2.024,1.997,2.024h19.099c1.119,0,1.996-.889,1.996-2.024v-34.258c0-8.626,3.729-13.186,10.782-13.186Z" fill="#16161c" stroke-width="0"></path></g><g id="h"><path d="M265.513,180.153v-24.045c0-.324.216-.576.54-.576h9.035c4.391,0,6.983,2.879,6.983,6.479,0,2.772-1.656,4.463-3.131,5.219,2.304.648,4.823,2.556,4.823,6.299,0,4.284-2.952,7.199-9.071,7.199h-8.639c-.324,0-.54-.252-.54-.576ZM273.72,165.287c1.548,0,2.484-.576,2.484-2.196,0-1.584-.936-2.088-2.484-2.088h-2.052v4.284h2.052ZM274.296,175.257c1.8,0,3.096-.756,3.096-2.628,0-1.944-1.296-2.556-3.096-2.556h-2.628v5.184h2.628Z" fill="#16161c" stroke-width="0"></path><path d="M290.855,180.153v-10.943l-7.343-13.03c-.216-.432-.072-.648.36-.648h5.327c.288,0,.54.108.684.36l4.104,7.667,4.104-7.667c.144-.252.36-.36.648-.36h5.327c.432,0,.612.216.396.648l-7.343,13.102v10.871c0,.324-.252.576-.576.576h-5.147c-.324,0-.54-.252-.54-.576Z" fill="#16161c" stroke-width="0"></path><path d="M318.899,180.153v-19.078h-4.715c-.324,0-.54-.252-.54-.576v-4.392c0-.324.216-.576.54-.576h15.658c.324,0,.576.252.576.576v4.392c0,.324-.252.576-.576.576h-4.68v19.078c0,.324-.252.576-.576.576h-5.147c-.324,0-.54-.252-.54-.576Z" fill="#16161c" stroke-width="0"></path><path d="M331.14,168.238c0-7.307,5.867-12.995,12.995-12.995s12.994,5.688,12.994,12.995-5.867,12.958-12.994,12.958-12.995-5.687-12.995-12.958ZM344.134,175.041c3.779,0,6.623-2.916,6.623-6.803,0-3.924-2.844-6.839-6.623-6.839s-6.659,2.916-6.659,6.839c0,3.887,2.879,6.803,6.659,6.803Z" fill="#16161c" stroke-width="0"></path><path d="M360.732,180.153v-24.045c0-.324.216-.576.54-.576h5.147c.324,0,.576.252.576.576v9.899l7.343-10.187c.18-.216.396-.288.648-.288h6.263c.468,0,.504.36.288.648l-8.243,10.367,9.251,13.534c.252.36.108.648-.324.648h-6.011c-.288,0-.468-.072-.648-.324l-6.083-8.963-2.483,3.095v5.616c0,.324-.252.576-.576.576h-5.147c-.324,0-.54-.252-.54-.576Z" fill="#16161c" stroke-width="0"></path><path d="M385.536,180.153v-24.045c0-.324.216-.576.54-.576h13.174c.324,0,.54.252.54.576v4.392c0,.324-.216.576-.54.576h-7.451v4.211h6.983c.324,0,.576.252.576.576v4.428c0,.324-.252.54-.576.54h-6.983v4.355h7.415c.324,0,.576.252.576.576v4.392c0,.324-.252.576-.576.576h-13.139c-.324,0-.54-.252-.54-.576Z" fill="#16161c" stroke-width="0"></path><path d="M417.718,180.369l-7.703-14.47v14.254c0,.324-.252.576-.576.576h-5.147c-.324,0-.54-.252-.54-.576v-24.045c0-.324.216-.576.54-.576h5.939c.288,0,.504.108.648.36l7.739,14.542v-14.326c0-.324.216-.576.54-.576h5.147c.324,0,.576.252.576.576v24.045c0,.324-.252.576-.576.576h-5.939c-.288,0-.504-.108-.648-.36Z" fill="#16161c" stroke-width="0"></path><path d="M434.999,180.296l-7.055-24.153c-.108-.36.036-.612.432-.612h5.363c.288,0,.576.108.612.432l4.284,16.234,4.679-16.234c.108-.324.288-.432.648-.432h4.859c.36,0,.54.108.648.432l4.679,16.234,4.284-16.234c.072-.324.324-.432.612-.432h5.363c.396,0,.54.252.432.612l-7.055,24.153c-.036.252-.36.432-.72.432h-5.328c-.324,0-.684-.18-.72-.432l-4.607-16.882-4.644,16.882c-.036.252-.396.432-.72.432h-5.328c-.36,0-.684-.18-.72-.432Z" fill="#16161c" stroke-width="0"></path><path d="M465.419,168.238c0-7.307,5.867-12.995,12.995-12.995s12.994,5.688,12.994,12.995-5.867,12.958-12.994,12.958-12.995-5.687-12.995-12.958ZM478.414,175.041c3.779,0,6.623-2.916,6.623-6.803,0-3.924-2.844-6.839-6.623-6.839s-6.659,2.916-6.659,6.839c0,3.887,2.879,6.803,6.659,6.803Z" fill="#16161c" stroke-width="0"></path><path d="M507.034,180.369l-4.968-8.135h-.792v7.919c0,.324-.252.576-.576.576h-5.147c-.324,0-.54-.252-.54-.576v-24.045c0-.324.216-.576.54-.576h7.919c6.191,0,9.107,3.383,9.107,8.351,0,3.491-1.439,6.227-4.5,7.523l5.436,8.675c.252.396.072.648-.36.648h-5.471c-.288,0-.504-.108-.648-.36ZM503.326,166.69c1.656,0,3.275-.432,3.275-2.808s-1.62-2.808-3.275-2.808h-2.052v5.615h2.052Z" fill="#16161c" stroke-width="0"></path><path d="M516.863,180.153v-24.045c0-.324.216-.576.54-.576h5.147c.324,0,.576.252.576.576v9.899l7.343-10.187c.18-.216.396-.288.648-.288h6.263c.468,0,.504.36.288.648l-8.243,10.367,9.251,13.534c.252.36.108.648-.324.648h-6.011c-.288,0-.468-.072-.648-.324l-6.083-8.963-2.483,3.095v5.616c0,.324-.252.576-.576.576h-5.147c-.324,0-.54-.252-.54-.576Z" fill="#16161c" stroke-width="0"></path><path d="M539.939,177.129c-.18-.216-.18-.504.036-.792l2.7-3.06c.252-.288.504-.396.828-.144,1.728,1.584,3.023,2.304,4.788,2.304,1.584,0,2.771-.504,2.771-1.943,0-1.224-.899-1.584-2.304-2.196l-3.06-1.404c-2.664-1.224-5.328-3.132-5.328-7.199,0-4.859,3.672-7.451,8.135-7.451,3.023,0,5.508,1.152,7.703,3.384.216.18.252.504.036.792l-2.664,3.203c-.18.288-.468.396-.756.216-1.619-1.296-2.771-1.872-4.104-1.872-1.512,0-2.304.756-2.304,1.8,0,1.296.972,1.584,2.771,2.412l2.448,1.08c2.628,1.224,5.507,2.916,5.507,7.271,0,5.436-4.535,7.631-8.711,7.631-4.031,0-6.983-2.016-8.495-4.032Z" fill="#16161c" stroke-width="0"></path></g><g id="i"><rect x="49.027" y="19.901" width="8.771" height="46.553" fill="#16161c" stroke-width="0"></rect><rect x="32.933" y="19.901" width="8.77" height="46.553" fill="#16161c" stroke-width="0"></rect><path d="M19.636,23.914v42.541h8.77V19.901h-4.877c-2.19,0-3.893,1.605-3.893,4.012Z" fill="#16161c" stroke-width="0"></path><path d="M32.933,179.787c2.595,3.877,5.522,7.452,8.77,10.694v-112.177h-8.77v101.483Z" fill="#16161c" stroke-width="0"></path><path d="M49.027,196.841c2.772,2.108,5.695,4.038,8.771,5.77v-124.306h-8.771v118.537Z" fill="#16161c" stroke-width="0"></path><path d="M23.816,78.304h-3.893v55.282c0,14.731,3.046,27.585,8.483,38.447v-93.729h-4.59Z" fill="#16161c" stroke-width="0"></path><path d="M186.347,78.304h-116.7v129.768c10.762,3.996,22.744,6.066,35.435,6.066,47.445,0,85.158-28.656,85.158-80.553v-55.282h-3.892Z" fill="#16161c" stroke-width="0"></path><path d="M209.863,135.612V16.858c0-4.655-1.898-8.87-4.966-11.92s-7.308-4.938-11.99-4.938H16.968c-4.682,0-8.922,1.887-11.99,4.938C1.91,7.988.012,12.203.012,16.858v59.34s0,59.34,0,59.34c-.106,6.234.392,17.291,4.036,29.989,3.644,12.698,10.435,27.037,22.915,39.834,14.139,14.499,30.559,21.761,44.98,25.401,14.421,3.639,26.843,3.656,32.988,3.664.181,0,.367.001.557.001s.384,0,.581,0c6.957,0,18.868-.171,32.453-3.661,13.585-3.489,28.844-10.297,42.498-23.57,13.347-12.976,20.613-27.665,24.514-40.714,3.901-13.049,4.438-24.457,4.328-30.87ZM174.866,200.938c-12.756,12.401-27.194,18.585-39.964,21.67s-23.873,3.068-29.958,3.067c-5.685-.008-17.178-.024-30.461-3.33-13.283-3.306-28.355-9.904-41.2-23.075-11.333-11.621-17.499-24.673-20.807-36.251-3.308-11.578-3.759-21.682-3.662-27.407V18.279c0-2.631,1.073-5.013,2.807-6.737,1.734-1.724,4.13-2.79,6.776-2.79h174.51c2.251,0,4.29.907,5.765,2.374s2.388,3.493,2.388,5.732v59.414s0,59.414,0,59.414c.079,4.59-.238,14.845-3.691,26.982-3.452,12.136-10.04,26.154-22.504,38.27Z" fill="#16161c" stroke-width="0"></path><path d="M186.059,66.454h3.893V23.914c0-2.407-1.703-4.012-3.893-4.012h-116.412v46.553h116.412Z" fill="#16161c" stroke-width="0"></path></g></g></g></svg>