<svg width="164" height="181" viewBox="0 0 164 181" fill="none" xmlns="http://www.w3.org/2000/svg">
<style>
  path { fill: #16161C; }
  @media (prefers-color-scheme: dark) {
    path { fill: #FFFFFF; }
  }
</style>
<g clip-path="url(#clip0_1_725)">
<path d="M45.1646 15.2172H38.3706V51.2624H45.1646V15.2172Z"/>
<path d="M32.7056 15.2172H25.9116V51.2624H32.7056V15.2172Z"/>
<path d="M15.616 18.3201V51.2557H22.4099V15.2172H18.631C16.9342 15.2172 15.616 16.461 15.616 18.3268V18.3201Z"/>
<path d="M25.9116 139.01C27.9194 142.011 30.1841 144.783 32.7056 147.291V60.436H25.9116V139.01Z"/>
<path d="M38.3706 152.212C40.5136 153.841 42.7782 155.342 45.1646 156.681V60.436H38.3706V152.212Z"/>
<path d="M18.8473 60.436H15.8323V103.241C15.8323 114.646 18.1916 124.597 22.4032 133.006V60.436H18.8473Z"/>
<path d="M144.694 60.436H54.3379V160.912C62.6732 164.009 71.9482 165.611 81.7707 165.611C118.505 165.611 147.703 143.424 147.703 103.241V60.436H144.688H144.694Z"/>
<path d="M144.688 15.2171H54.3379V51.2624H147.709V18.3201C147.709 16.4543 146.384 15.2104 144.688 15.2104V15.2171Z"/>
<path d="M150.705 0H12.6145C5.65151 0 0 5.64475 0 12.6145V104.675C0 127.936 8.32854 147.494 24.0865 161.23C38.5803 173.865 58.9758 180.828 81.5277 180.828H81.7914C104.337 180.828 124.739 173.865 139.233 161.23C154.991 147.494 163.312 127.936 163.312 104.675V12.6145C163.312 5.64475 157.668 0 150.698 0H150.705ZM156.505 104.675C156.505 149.339 123.414 174.007 81.7981 174.007H81.5345C39.9121 174.007 6.82102 149.339 6.82102 104.675V12.6956C7.21311 9.38313 10.0321 6.81426 13.446 6.81426H149.833C153.517 6.81426 156.505 9.80226 156.505 13.4866V104.675Z"/>
</g>
<defs>
<clipPath id="clip0_1_725">
<rect width="163.312" height="180.821" fill="white"/>
</clipPath>
</defs>
</svg>
